<svg width="135" height="55" viewBox="0 0 135 55" fill="none" xmlns="http://www.w3.org/2000/svg">
<g filter="url(#filter0_d_1_14)">
<path d="M38.8966 0.780121C36.4831 0.782692 34.1691 1.68954 32.4624 3.30168C30.7558 4.91385 29.7957 7.09966 29.793 9.37962V11.3193C29.793 13.4142 28.0948 15.1124 26 15.1124C23.9052 15.1124 22.207 13.4142 22.207 11.3193V9.37962C22.1946 7.10655 21.2301 4.93057 19.5242 3.32737C17.8183 1.72417 15.5098 0.824198 13.1035 0.824198C10.6971 0.824198 8.38867 1.72417 6.68278 3.32737C4.97689 4.93057 4.01233 7.10655 4 9.37962V38.0446C4.01233 40.3177 4.97689 42.4936 6.68278 44.0967C8.38867 45.6999 10.6971 46.6 13.1035 46.6C15.5098 46.6 17.8183 45.6999 19.5242 44.0967C21.2301 42.4936 22.1946 40.3177 22.207 38.0446V36.1394C22.207 35.5525 21.8684 35.0182 21.3377 34.7675C20.3312 34.2921 19.1724 35.0263 19.1724 36.1394V38.0446C19.1724 39.1785 18.8165 40.2869 18.1496 41.2297C17.4827 42.1725 16.5348 42.9072 15.4258 43.3412C14.3168 43.775 13.0965 43.8887 11.9192 43.6675C10.742 43.4461 9.66056 42.9002 8.8118 42.0984C7.96304 41.2966 7.38502 40.275 7.15087 39.163C6.91674 38.0507 7.03695 36.898 7.49634 35.8504C7.95572 34.803 8.73365 33.9075 9.73175 33.2776C10.7298 32.6477 11.9032 32.3115 13.1036 32.3115H38.8966C40.0971 32.3115 41.2705 32.6477 42.2683 33.2778C43.2665 33.9077 44.0443 34.803 44.5037 35.8507C44.9631 36.8983 45.0834 38.0509 44.849 39.163C44.6149 40.2752 44.0369 41.2966 43.188 42.0984C42.3394 42.9002 41.258 43.4463 40.0806 43.6675C38.9033 43.8887 37.6831 43.775 36.574 43.3412C35.4652 42.9072 34.5173 42.1725 33.8503 41.2297C33.1836 40.2869 32.8276 39.1785 32.8276 38.0446V36.1394C32.8276 35.5525 32.489 35.0182 31.9583 34.7675C30.9518 34.2921 29.793 35.0263 29.793 36.1394V38.0446C29.8055 40.3177 30.7699 42.4936 32.4758 44.0967C34.1818 45.6999 36.4903 46.6 38.8964 46.6C41.3027 46.6 43.6113 45.6999 45.3172 44.0967C47.0232 42.4936 47.9876 40.3177 48 38.0446V9.37962C47.9974 7.09971 47.0373 4.91392 45.3306 3.30177C43.6242 1.68962 41.3102 0.782751 38.8966 0.780121ZM32.8276 9.37962C32.8276 8.24572 33.1834 7.13728 33.8503 6.19447C34.5173 5.25165 35.4649 4.51681 36.574 4.08285C37.6828 3.64891 38.9031 3.53534 40.0806 3.75652C41.2578 3.9777 42.3391 4.5237 43.188 5.32546C44.0369 6.12723 44.6149 7.14876 44.849 8.26085C45.0834 9.37295 44.9631 10.5257 44.5037 11.5732C44.0443 12.6208 43.2665 13.5162 42.2686 14.1462C41.2705 14.7761 40.0971 15.1124 38.8966 15.1124H37.8276C35.0662 15.1124 32.8276 12.8738 32.8276 10.1124V9.37962ZM13.1036 3.64663C14.7126 3.64841 16.2552 4.25301 17.3929 5.32777C18.5306 6.40252 19.1706 7.8597 19.1724 9.37962V10.1124C19.1724 12.8738 16.9338 15.1124 14.1724 15.1124H13.1036C12.3034 15.1171 11.5101 14.9723 10.7694 14.6864C10.0287 14.4004 9.35512 13.9788 8.78753 13.446C8.21991 12.9132 7.76944 12.2796 7.46207 11.5817C7.15469 10.8838 6.99644 10.1354 6.99644 9.37951C6.99644 8.6236 7.15469 7.87518 7.46207 7.17727C7.76944 6.47936 8.21991 5.84577 8.78753 5.31295C9.35512 4.78014 10.0287 4.35861 10.7694 4.07263C11.5101 3.78666 12.3034 3.64188 13.1036 3.64663ZM38.8966 29.4445H13.1036C10.5054 29.4424 7.03453 27.6492 7.03453 25.051V22.3723C7.03453 19.774 10.5054 17.9808 13.1036 17.9786H38.8966C41.4947 17.9808 44.9655 19.774 44.9655 22.372V25.0512C44.9655 27.6492 41.4946 29.4424 38.8966 29.4445Z" fill="#FEF9FF" fill-opacity="0.95"/>
<path d="M38.8966 0.780121C36.4831 0.782692 34.1691 1.68954 32.4624 3.30168C30.7558 4.91385 29.7957 7.09966 29.793 9.37962V11.3193C29.793 13.4142 28.0948 15.1124 26 15.1124C23.9052 15.1124 22.207 13.4142 22.207 11.3193V9.37962C22.1946 7.10655 21.2301 4.93057 19.5242 3.32737C17.8183 1.72417 15.5098 0.824198 13.1035 0.824198C10.6971 0.824198 8.38867 1.72417 6.68278 3.32737C4.97689 4.93057 4.01233 7.10655 4 9.37962V38.0446C4.01233 40.3177 4.97689 42.4936 6.68278 44.0967C8.38867 45.6999 10.6971 46.6 13.1035 46.6C15.5098 46.6 17.8183 45.6999 19.5242 44.0967C21.2301 42.4936 22.1946 40.3177 22.207 38.0446V36.1394C22.207 35.5525 21.8684 35.0182 21.3377 34.7675C20.3312 34.2921 19.1724 35.0263 19.1724 36.1394V38.0446C19.1724 39.1785 18.8165 40.2869 18.1496 41.2297C17.4827 42.1725 16.5348 42.9072 15.4258 43.3412C14.3168 43.775 13.0965 43.8887 11.9192 43.6675C10.742 43.4461 9.66056 42.9002 8.8118 42.0984C7.96304 41.2966 7.38502 40.275 7.15087 39.163C6.91674 38.0507 7.03695 36.898 7.49634 35.8504C7.95572 34.803 8.73365 33.9075 9.73175 33.2776C10.7298 32.6477 11.9032 32.3115 13.1036 32.3115H38.8966C40.0971 32.3115 41.2705 32.6477 42.2683 33.2778C43.2665 33.9077 44.0443 34.803 44.5037 35.8507C44.9631 36.8983 45.0834 38.0509 44.849 39.163C44.6149 40.2752 44.0369 41.2966 43.188 42.0984C42.3394 42.9002 41.258 43.4463 40.0806 43.6675C38.9033 43.8887 37.6831 43.775 36.574 43.3412C35.4652 42.9072 34.5173 42.1725 33.8503 41.2297C33.1836 40.2869 32.8276 39.1785 32.8276 38.0446V36.1394C32.8276 35.5525 32.489 35.0182 31.9583 34.7675C30.9518 34.2921 29.793 35.0263 29.793 36.1394V38.0446C29.8055 40.3177 30.7699 42.4936 32.4758 44.0967C34.1818 45.6999 36.4903 46.6 38.8964 46.6C41.3027 46.6 43.6113 45.6999 45.3172 44.0967C47.0232 42.4936 47.9876 40.3177 48 38.0446V9.37962C47.9974 7.09971 47.0373 4.91392 45.3306 3.30177C43.6242 1.68962 41.3102 0.782751 38.8966 0.780121ZM32.8276 9.37962C32.8276 8.24572 33.1834 7.13728 33.8503 6.19447C34.5173 5.25165 35.4649 4.51681 36.574 4.08285C37.6828 3.64891 38.9031 3.53534 40.0806 3.75652C41.2578 3.9777 42.3391 4.5237 43.188 5.32546C44.0369 6.12723 44.6149 7.14876 44.849 8.26085C45.0834 9.37295 44.9631 10.5257 44.5037 11.5732C44.0443 12.6208 43.2665 13.5162 42.2686 14.1462C41.2705 14.7761 40.0971 15.1124 38.8966 15.1124H37.8276C35.0662 15.1124 32.8276 12.8738 32.8276 10.1124V9.37962ZM13.1036 3.64663C14.7126 3.64841 16.2552 4.25301 17.3929 5.32777C18.5306 6.40252 19.1706 7.8597 19.1724 9.37962V10.1124C19.1724 12.8738 16.9338 15.1124 14.1724 15.1124H13.1036C12.3034 15.1171 11.5101 14.9723 10.7694 14.6864C10.0287 14.4004 9.35512 13.9788 8.78753 13.446C8.21991 12.9132 7.76944 12.2796 7.46207 11.5817C7.15469 10.8838 6.99644 10.1354 6.99644 9.37951C6.99644 8.6236 7.15469 7.87518 7.46207 7.17727C7.76944 6.47936 8.21991 5.84577 8.78753 5.31295C9.35512 4.78014 10.0287 4.35861 10.7694 4.07263C11.5101 3.78666 12.3034 3.64188 13.1036 3.64663ZM38.8966 29.4445H13.1036C10.5054 29.4424 7.03453 27.6492 7.03453 25.051V22.3723C7.03453 19.774 10.5054 17.9808 13.1036 17.9786H38.8966C41.4947 17.9808 44.9655 19.774 44.9655 22.372V25.0512C44.9655 27.6492 41.4946 29.4424 38.8966 29.4445Z" fill="white" fill-opacity="0.89"/>
<path d="M61.4304 14.4545V29H58.7741L52.446 19.8452H52.3395V29H49.2642V14.4545H51.9631L58.2415 23.6023H58.3693V14.4545H61.4304ZM67.0252 29.206C66.3292 29.206 65.7089 29.0852 65.1644 28.8438C64.6199 28.5975 64.189 28.2353 63.8718 27.7571C63.5593 27.2741 63.4031 26.6728 63.4031 25.9531C63.4031 25.3471 63.5143 24.8381 63.7369 24.4261C63.9594 24.0142 64.2624 23.6828 64.646 23.4318C65.0295 23.1809 65.4651 22.9915 65.9528 22.8636C66.4452 22.7358 66.9613 22.6458 67.5011 22.5938C68.1355 22.5275 68.6469 22.4659 69.0352 22.4091C69.4234 22.3475 69.7051 22.2576 69.8803 22.1392C70.0555 22.0208 70.1431 21.8456 70.1431 21.6136V21.571C70.1431 21.1212 70.0011 20.7732 69.717 20.527C69.4376 20.2808 69.0399 20.1577 68.5238 20.1577C67.9793 20.1577 67.546 20.2784 67.2241 20.5199C66.9021 20.7566 66.689 21.0549 66.5849 21.4148L63.7866 21.1875C63.9286 20.5246 64.208 19.9517 64.6246 19.4688C65.0413 18.9811 65.5787 18.607 66.2369 18.3466C66.8997 18.0814 67.6668 17.9489 68.538 17.9489C69.1441 17.9489 69.7241 18.0199 70.2781 18.1619C70.8368 18.304 71.3316 18.5241 71.7624 18.8224C72.198 19.1207 72.5413 19.5043 72.7923 19.973C73.0432 20.437 73.1687 20.9934 73.1687 21.642V29H70.2994V27.4872H70.2141C70.0389 27.8281 69.8046 28.1288 69.511 28.3892C69.2174 28.6449 68.8647 28.8461 68.4528 28.9929C68.0408 29.1349 67.565 29.206 67.0252 29.206ZM67.8917 27.1179C68.3368 27.1179 68.7298 27.0303 69.0707 26.8551C69.4116 26.6752 69.6791 26.4337 69.8732 26.1307C70.0674 25.8277 70.1644 25.4844 70.1644 25.1009V23.9432C70.0697 24.0047 69.9395 24.0616 69.7738 24.1136C69.6128 24.161 69.4305 24.206 69.2269 24.2486C69.0233 24.2865 68.8197 24.322 68.6161 24.3551C68.4125 24.3835 68.2279 24.4096 68.0621 24.4332C67.707 24.4853 67.3969 24.5682 67.1317 24.6818C66.8666 24.7955 66.6606 24.9493 66.5138 25.1435C66.3671 25.3329 66.2937 25.5696 66.2937 25.8537C66.2937 26.2656 66.4428 26.5805 66.7411 26.7983C67.0442 27.0114 67.4277 27.1179 67.8917 27.1179ZM81.3185 18.0909V20.3636H74.7489V18.0909H81.3185ZM76.2404 15.4773H79.266V25.6477C79.266 25.9271 79.3086 26.1449 79.3938 26.3011C79.479 26.4527 79.5974 26.5592 79.7489 26.6207C79.9052 26.6823 80.0851 26.7131 80.2887 26.7131C80.4308 26.7131 80.5728 26.7012 80.7148 26.6776C80.8569 26.6491 80.9658 26.6278 81.0415 26.6136L81.5174 28.8651C81.3659 28.9124 81.1528 28.9669 80.8782 29.0284C80.6036 29.0947 80.2698 29.1349 79.8768 29.1491C79.1476 29.1776 78.5084 29.0805 77.9592 28.858C77.4147 28.6354 76.9909 28.2898 76.6879 27.821C76.3848 27.3523 76.2357 26.7604 76.2404 26.0455V15.4773ZM90.2852 24.3551V18.0909H93.3107V29H90.4059V27.0185H90.2923C90.046 27.6577 89.6365 28.1714 89.0636 28.5597C88.4954 28.9479 87.8017 29.142 86.9826 29.142C86.2534 29.142 85.6119 28.9763 85.0579 28.6449C84.5039 28.3134 84.0707 27.8423 83.7582 27.2315C83.4504 26.6207 83.2942 25.8892 83.2894 25.0369V18.0909H86.315V24.4972C86.3197 25.1411 86.4925 25.6501 86.8335 26.0241C87.1744 26.3982 87.6313 26.5852 88.2042 26.5852C88.5688 26.5852 88.9097 26.5024 89.2269 26.3366C89.5442 26.1662 89.7998 25.9152 89.994 25.5838C90.1928 25.2524 90.2899 24.8428 90.2852 24.3551ZM95.7308 29V18.0909H98.6641V19.9943H98.7777C98.9766 19.3172 99.3104 18.8059 99.7791 18.4602C100.248 18.1098 100.788 17.9347 101.398 17.9347C101.55 17.9347 101.713 17.9441 101.888 17.9631C102.064 17.982 102.218 18.008 102.35 18.0412V20.7259C102.208 20.6832 102.012 20.6454 101.761 20.6122C101.51 20.5791 101.28 20.5625 101.072 20.5625C100.627 20.5625 100.229 20.6596 99.8786 20.8537C99.5329 21.0431 99.2583 21.3082 99.0547 21.6491C98.8558 21.9901 98.7564 22.383 98.7564 22.8281V29H95.7308ZM106.713 29.206C106.017 29.206 105.396 29.0852 104.852 28.8438C104.307 28.5975 103.877 28.2353 103.559 27.7571C103.247 27.2741 103.091 26.6728 103.091 25.9531C103.091 25.3471 103.202 24.8381 103.424 24.4261C103.647 24.0142 103.95 23.6828 104.333 23.4318C104.717 23.1809 105.153 22.9915 105.64 22.8636C106.133 22.7358 106.649 22.6458 107.189 22.5938C107.823 22.5275 108.334 22.4659 108.723 22.4091C109.111 22.3475 109.393 22.2576 109.568 22.1392C109.743 22.0208 109.831 21.8456 109.831 21.6136V21.571C109.831 21.1212 109.689 20.7732 109.404 20.527C109.125 20.2808 108.727 20.1577 108.211 20.1577C107.667 20.1577 107.234 20.2784 106.912 20.5199C106.59 20.7566 106.377 21.0549 106.272 21.4148L103.474 21.1875C103.616 20.5246 103.895 19.9517 104.312 19.4688C104.729 18.9811 105.266 18.607 105.924 18.3466C106.587 18.0814 107.354 17.9489 108.225 17.9489C108.832 17.9489 109.412 18.0199 109.966 18.1619C110.524 18.304 111.019 18.5241 111.45 18.8224C111.886 19.1207 112.229 19.5043 112.48 19.973C112.731 20.437 112.856 20.9934 112.856 21.642V29H109.987V27.4872H109.902C109.726 27.8281 109.492 28.1288 109.199 28.3892C108.905 28.6449 108.552 28.8461 108.14 28.9929C107.728 29.1349 107.252 29.206 106.713 29.206ZM107.579 27.1179C108.024 27.1179 108.417 27.0303 108.758 26.8551C109.099 26.6752 109.367 26.4337 109.561 26.1307C109.755 25.8277 109.852 25.4844 109.852 25.1009V23.9432C109.757 24.0047 109.627 24.0616 109.461 24.1136C109.3 24.161 109.118 24.206 108.914 24.2486C108.711 24.2865 108.507 24.322 108.304 24.3551C108.1 24.3835 107.915 24.4096 107.75 24.4332C107.395 24.4853 107.084 24.5682 106.819 24.6818C106.554 24.7955 106.348 24.9493 106.201 25.1435C106.055 25.3329 105.981 25.5696 105.981 25.8537C105.981 26.2656 106.13 26.5805 106.429 26.7983C106.732 27.0114 107.115 27.1179 107.579 27.1179ZM118.229 14.4545V29H115.203V14.4545H118.229ZM122.521 33.0909C122.137 33.0909 121.777 33.0601 121.441 32.9986C121.11 32.9418 120.835 32.8684 120.617 32.7784L121.299 30.5199C121.654 30.6288 121.974 30.688 122.258 30.6974C122.547 30.7069 122.795 30.6406 123.004 30.4986C123.217 30.3565 123.389 30.1151 123.522 29.7741L123.7 29.3125L119.786 18.0909H122.968L125.227 26.1023H125.34L127.62 18.0909H130.823L126.583 30.179C126.379 30.7661 126.103 31.2775 125.752 31.7131C125.406 32.1534 124.969 32.492 124.438 32.7287C123.908 32.9702 123.269 33.0909 122.521 33.0909Z" fill="#FEF9FF" fill-opacity="0.95"/>
<path d="M61.4304 14.4545V29H58.7741L52.446 19.8452H52.3395V29H49.2642V14.4545H51.9631L58.2415 23.6023H58.3693V14.4545H61.4304ZM67.0252 29.206C66.3292 29.206 65.7089 29.0852 65.1644 28.8438C64.6199 28.5975 64.189 28.2353 63.8718 27.7571C63.5593 27.2741 63.4031 26.6728 63.4031 25.9531C63.4031 25.3471 63.5143 24.8381 63.7369 24.4261C63.9594 24.0142 64.2624 23.6828 64.646 23.4318C65.0295 23.1809 65.4651 22.9915 65.9528 22.8636C66.4452 22.7358 66.9613 22.6458 67.5011 22.5938C68.1355 22.5275 68.6469 22.4659 69.0352 22.4091C69.4234 22.3475 69.7051 22.2576 69.8803 22.1392C70.0555 22.0208 70.1431 21.8456 70.1431 21.6136V21.571C70.1431 21.1212 70.0011 20.7732 69.717 20.527C69.4376 20.2808 69.0399 20.1577 68.5238 20.1577C67.9793 20.1577 67.546 20.2784 67.2241 20.5199C66.9021 20.7566 66.689 21.0549 66.5849 21.4148L63.7866 21.1875C63.9286 20.5246 64.208 19.9517 64.6246 19.4688C65.0413 18.9811 65.5787 18.607 66.2369 18.3466C66.8997 18.0814 67.6668 17.9489 68.538 17.9489C69.1441 17.9489 69.7241 18.0199 70.2781 18.1619C70.8368 18.304 71.3316 18.5241 71.7624 18.8224C72.198 19.1207 72.5413 19.5043 72.7923 19.973C73.0432 20.437 73.1687 20.9934 73.1687 21.642V29H70.2994V27.4872H70.2141C70.0389 27.8281 69.8046 28.1288 69.511 28.3892C69.2174 28.6449 68.8647 28.8461 68.4528 28.9929C68.0408 29.1349 67.565 29.206 67.0252 29.206ZM67.8917 27.1179C68.3368 27.1179 68.7298 27.0303 69.0707 26.8551C69.4116 26.6752 69.6791 26.4337 69.8732 26.1307C70.0674 25.8277 70.1644 25.4844 70.1644 25.1009V23.9432C70.0697 24.0047 69.9395 24.0616 69.7738 24.1136C69.6128 24.161 69.4305 24.206 69.2269 24.2486C69.0233 24.2865 68.8197 24.322 68.6161 24.3551C68.4125 24.3835 68.2279 24.4096 68.0621 24.4332C67.707 24.4853 67.3969 24.5682 67.1317 24.6818C66.8666 24.7955 66.6606 24.9493 66.5138 25.1435C66.3671 25.3329 66.2937 25.5696 66.2937 25.8537C66.2937 26.2656 66.4428 26.5805 66.7411 26.7983C67.0442 27.0114 67.4277 27.1179 67.8917 27.1179ZM81.3185 18.0909V20.3636H74.7489V18.0909H81.3185ZM76.2404 15.4773H79.266V25.6477C79.266 25.9271 79.3086 26.1449 79.3938 26.3011C79.479 26.4527 79.5974 26.5592 79.7489 26.6207C79.9052 26.6823 80.0851 26.7131 80.2887 26.7131C80.4308 26.7131 80.5728 26.7012 80.7148 26.6776C80.8569 26.6491 80.9658 26.6278 81.0415 26.6136L81.5174 28.8651C81.3659 28.9124 81.1528 28.9669 80.8782 29.0284C80.6036 29.0947 80.2698 29.1349 79.8768 29.1491C79.1476 29.1776 78.5084 29.0805 77.9592 28.858C77.4147 28.6354 76.9909 28.2898 76.6879 27.821C76.3848 27.3523 76.2357 26.7604 76.2404 26.0455V15.4773ZM90.2852 24.3551V18.0909H93.3107V29H90.4059V27.0185H90.2923C90.046 27.6577 89.6365 28.1714 89.0636 28.5597C88.4954 28.9479 87.8017 29.142 86.9826 29.142C86.2534 29.142 85.6119 28.9763 85.0579 28.6449C84.5039 28.3134 84.0707 27.8423 83.7582 27.2315C83.4504 26.6207 83.2942 25.8892 83.2894 25.0369V18.0909H86.315V24.4972C86.3197 25.1411 86.4925 25.6501 86.8335 26.0241C87.1744 26.3982 87.6313 26.5852 88.2042 26.5852C88.5688 26.5852 88.9097 26.5024 89.2269 26.3366C89.5442 26.1662 89.7998 25.9152 89.994 25.5838C90.1928 25.2524 90.2899 24.8428 90.2852 24.3551ZM95.7308 29V18.0909H98.6641V19.9943H98.7777C98.9766 19.3172 99.3104 18.8059 99.7791 18.4602C100.248 18.1098 100.788 17.9347 101.398 17.9347C101.55 17.9347 101.713 17.9441 101.888 17.9631C102.064 17.982 102.218 18.008 102.35 18.0412V20.7259C102.208 20.6832 102.012 20.6454 101.761 20.6122C101.51 20.5791 101.28 20.5625 101.072 20.5625C100.627 20.5625 100.229 20.6596 99.8786 20.8537C99.5329 21.0431 99.2583 21.3082 99.0547 21.6491C98.8558 21.9901 98.7564 22.383 98.7564 22.8281V29H95.7308ZM106.713 29.206C106.017 29.206 105.396 29.0852 104.852 28.8438C104.307 28.5975 103.877 28.2353 103.559 27.7571C103.247 27.2741 103.091 26.6728 103.091 25.9531C103.091 25.3471 103.202 24.8381 103.424 24.4261C103.647 24.0142 103.95 23.6828 104.333 23.4318C104.717 23.1809 105.153 22.9915 105.64 22.8636C106.133 22.7358 106.649 22.6458 107.189 22.5938C107.823 22.5275 108.334 22.4659 108.723 22.4091C109.111 22.3475 109.393 22.2576 109.568 22.1392C109.743 22.0208 109.831 21.8456 109.831 21.6136V21.571C109.831 21.1212 109.689 20.7732 109.404 20.527C109.125 20.2808 108.727 20.1577 108.211 20.1577C107.667 20.1577 107.234 20.2784 106.912 20.5199C106.59 20.7566 106.377 21.0549 106.272 21.4148L103.474 21.1875C103.616 20.5246 103.895 19.9517 104.312 19.4688C104.729 18.9811 105.266 18.607 105.924 18.3466C106.587 18.0814 107.354 17.9489 108.225 17.9489C108.832 17.9489 109.412 18.0199 109.966 18.1619C110.524 18.304 111.019 18.5241 111.45 18.8224C111.886 19.1207 112.229 19.5043 112.48 19.973C112.731 20.437 112.856 20.9934 112.856 21.642V29H109.987V27.4872H109.902C109.726 27.8281 109.492 28.1288 109.199 28.3892C108.905 28.6449 108.552 28.8461 108.14 28.9929C107.728 29.1349 107.252 29.206 106.713 29.206ZM107.579 27.1179C108.024 27.1179 108.417 27.0303 108.758 26.8551C109.099 26.6752 109.367 26.4337 109.561 26.1307C109.755 25.8277 109.852 25.4844 109.852 25.1009V23.9432C109.757 24.0047 109.627 24.0616 109.461 24.1136C109.3 24.161 109.118 24.206 108.914 24.2486C108.711 24.2865 108.507 24.322 108.304 24.3551C108.1 24.3835 107.915 24.4096 107.75 24.4332C107.395 24.4853 107.084 24.5682 106.819 24.6818C106.554 24.7955 106.348 24.9493 106.201 25.1435C106.055 25.3329 105.981 25.5696 105.981 25.8537C105.981 26.2656 106.13 26.5805 106.429 26.7983C106.732 27.0114 107.115 27.1179 107.579 27.1179ZM118.229 14.4545V29H115.203V14.4545H118.229ZM122.521 33.0909C122.137 33.0909 121.777 33.0601 121.441 32.9986C121.11 32.9418 120.835 32.8684 120.617 32.7784L121.299 30.5199C121.654 30.6288 121.974 30.688 122.258 30.6974C122.547 30.7069 122.795 30.6406 123.004 30.4986C123.217 30.3565 123.389 30.1151 123.522 29.7741L123.7 29.3125L119.786 18.0909H122.968L125.227 26.1023H125.34L127.62 18.0909H130.823L126.583 30.179C126.379 30.7661 126.103 31.2775 125.752 31.7131C125.406 32.1534 124.969 32.492 124.438 32.7287C123.908 32.9702 123.269 33.0909 122.521 33.0909Z" fill="white" fill-opacity="0.89"/>
</g>
<defs>
<filter id="filter0_d_1_14" x="0" y="0.780121" width="134.823" height="53.8199" filterUnits="userSpaceOnUse" color-interpolation-filters="sRGB">
<feFlood flood-opacity="0" result="BackgroundImageFix"/>
<feColorMatrix in="SourceAlpha" type="matrix" values="0 0 0 0 0 0 0 0 0 0 0 0 0 0 0 0 0 0 127 0" result="hardAlpha"/>
<feOffset dy="4"/>
<feGaussianBlur stdDeviation="2"/>
<feComposite in2="hardAlpha" operator="out"/>
<feColorMatrix type="matrix" values="0 0 0 0 0 0 0 0 0 0 0 0 0 0 0 0 0 0 0.25 0"/>
<feBlend mode="normal" in2="BackgroundImageFix" result="effect1_dropShadow_1_14"/>
<feBlend mode="normal" in="SourceGraphic" in2="effect1_dropShadow_1_14" result="shape"/>
</filter>
</defs>
</svg>
